<svg xmlns="http://www.w3.org/2000/svg" xmlns:xlink="http://www.w3.org/1999/xlink" width="1080" zoomAndPan="magnify" viewBox="0 0 810 809.999993" height="1080" preserveAspectRatio="xMidYMid meet" version="1.0"><defs><clipPath id="b2230a20fe"><path d="M 625 99.667969 L 810 99.667969 L 810 395 L 625 395 Z M 625 99.667969 " clip-rule="nonzero"/></clipPath><clipPath id="3c3b145d82"><path d="M 0 99.667969 L 185 99.667969 L 185 395 L 0 395 Z M 0 99.667969 " clip-rule="nonzero"/></clipPath></defs><path fill="#6f2dbd" d="M 184.089844 707.324219 L 184.089844 394.371094 L 87.03125 305.574219 L 0 256.300781 L 0 652.097656 C 0 682.65625 24.761719 707.324219 55.226562 707.324219 Z M 184.089844 707.324219 " fill-opacity="1" fill-rule="nonzero"/><path fill="#6f2dbd" d="M 625.910156 707.324219 L 754.773438 707.324219 C 785.332031 707.324219 810 682.5625 810 652.097656 L 810 256.300781 L 711.421875 312.742188 L 625.910156 394.371094 Z M 625.910156 707.324219 " fill-opacity="1" fill-rule="nonzero"/><path fill="#6f2dbd" d="M 184.089844 394.371094 L 170.882812 272.089844 L 184.089844 155.050781 L 405 320.734375 L 625.910156 155.050781 L 640.683594 265.769531 L 625.910156 394.371094 L 405 560.050781 Z M 184.089844 394.371094 " fill-opacity="1" fill-rule="nonzero"/><g clip-path="url(#b2230a20fe)"><path fill="#6f2dbd" d="M 625.910156 155.050781 L 625.910156 394.371094 L 810 256.300781 L 810 182.664062 C 810 114.367188 732.039062 75.433594 677.453125 116.394531 Z M 625.910156 155.050781 " fill-opacity="1" fill-rule="nonzero"/></g><g clip-path="url(#3c3b145d82)"><path fill="#6f2dbd" d="M 0 256.300781 L 84.667969 319.800781 L 184.089844 394.371094 L 184.089844 155.050781 L 132.546875 116.394531 C 77.871094 75.433594 0 114.367188 0 182.664062 Z M 0 256.300781 " fill-opacity="1" fill-rule="nonzero"/></g></svg>