<svg xmlns="http://www.w3.org/2000/svg" xmlns:xlink="http://www.w3.org/1999/xlink" width="1080" zoomAndPan="magnify" viewBox="0 0 810 809.999993" height="1080" preserveAspectRatio="xMidYMid meet" version="1.0"><path fill="#6f2dbd" d="M 405 72.972656 C 513.140625 72.972656 525.949219 73.386719 568.652344 75.335938 C 608.140625 77.136719 629.585938 83.734375 643.855469 89.277344 C 662.761719 96.625 676.253906 105.402344 690.425781 119.574219 C 704.597656 133.746094 713.375 147.238281 720.71875 166.144531 C 726.265625 180.414062 732.863281 201.859375 734.664062 241.34375 C 736.613281 284.050781 737.027344 296.859375 737.027344 405 C 737.027344 513.140625 736.613281 525.949219 734.664062 568.65625 C 732.863281 608.140625 726.265625 629.585938 720.71875 643.859375 C 713.375 662.761719 704.597656 676.253906 690.425781 690.425781 C 676.253906 704.597656 662.761719 713.375 643.855469 720.722656 C 629.585938 726.265625 608.140625 732.863281 568.652344 734.667969 C 525.953125 736.617188 513.144531 737.027344 405 737.027344 C 296.851562 737.027344 284.042969 736.617188 241.34375 734.667969 C 201.859375 732.863281 180.414062 726.265625 166.144531 720.722656 C 147.238281 713.375 133.746094 704.597656 119.574219 690.425781 C 105.402344 676.253906 96.625 662.761719 89.277344 643.859375 C 83.734375 629.585938 77.136719 608.140625 75.332031 568.65625 C 73.382812 525.949219 72.972656 513.140625 72.972656 405 C 72.972656 296.859375 73.382812 284.050781 75.332031 241.347656 C 77.136719 201.859375 83.734375 180.414062 89.277344 166.144531 C 96.625 147.238281 105.402344 133.746094 119.574219 119.574219 C 133.746094 105.402344 147.238281 96.625 166.144531 89.277344 C 180.414062 83.734375 201.859375 77.136719 241.34375 75.335938 C 284.050781 73.386719 296.859375 72.972656 405 72.972656 M 405 0 C 295.007812 0 281.214844 0.464844 238.019531 2.4375 C 194.910156 4.40625 165.46875 11.25 139.707031 21.261719 C 113.074219 31.613281 90.488281 45.460938 67.976562 67.976562 C 45.460938 90.492188 31.609375 113.078125 21.261719 139.710938 C 11.25 165.472656 4.402344 194.910156 2.4375 238.019531 C 0.464844 281.214844 0 295.007812 0 405 C 0 514.992188 0.464844 528.785156 2.4375 571.980469 C 4.402344 615.089844 11.25 644.53125 21.261719 670.292969 C 31.609375 696.921875 45.460938 719.511719 67.976562 742.023438 C 90.488281 764.539062 113.074219 778.390625 139.707031 788.738281 C 165.46875 798.75 194.910156 805.597656 238.019531 807.5625 C 281.214844 809.535156 295.007812 810 405 810 C 514.992188 810 528.785156 809.535156 571.980469 807.5625 C 615.089844 805.597656 644.527344 798.75 670.289062 788.738281 C 696.921875 778.390625 719.507812 764.539062 742.023438 742.023438 C 764.539062 719.511719 778.386719 696.925781 788.738281 670.292969 C 798.75 644.53125 805.59375 615.089844 807.5625 571.980469 C 809.535156 528.785156 810 514.992188 810 405 C 810 295.007812 809.535156 281.214844 807.5625 238.019531 C 805.59375 194.910156 798.75 165.472656 788.738281 139.710938 C 778.386719 113.078125 764.539062 90.492188 742.023438 67.976562 C 719.507812 45.460938 696.921875 31.613281 670.289062 21.261719 C 644.527344 11.25 615.089844 4.40625 571.980469 2.4375 C 528.785156 0.464844 514.992188 0 405 0 Z M 405 197.027344 C 290.140625 197.027344 197.027344 290.140625 197.027344 405 C 197.027344 519.859375 290.140625 612.972656 405 612.972656 C 519.859375 612.972656 612.972656 519.859375 612.972656 405 C 612.972656 290.140625 519.859375 197.027344 405 197.027344 Z M 405 540 C 330.441406 540 270 479.558594 270 405 C 270 330.441406 330.441406 270 405 270 C 479.558594 270 540 330.441406 540 405 C 540 479.558594 479.558594 540 405 540 Z M 669.789062 188.808594 C 669.789062 215.652344 648.03125 237.410156 621.191406 237.410156 C 594.347656 237.410156 572.589844 215.652344 572.589844 188.808594 C 572.589844 161.96875 594.347656 140.210938 621.191406 140.210938 C 648.03125 140.210938 669.789062 161.96875 669.789062 188.808594 Z M 669.789062 188.808594 " fill-opacity="1" fill-rule="nonzero"/></svg>