<svg xmlns="http://www.w3.org/2000/svg" xmlns:xlink="http://www.w3.org/1999/xlink" width="1080" zoomAndPan="magnify" viewBox="0 0 810 809.999993" height="1080" preserveAspectRatio="xMidYMid meet" version="1.0"><path fill="#6f2dbd" d="M 690.15625 690.167969 L 570.136719 690.167969 L 570.136719 502.214844 C 570.136719 457.394531 569.339844 399.695312 507.71875 399.695312 C 445.207031 399.695312 435.644531 448.53125 435.644531 498.949219 L 435.644531 690.15625 L 315.628906 690.15625 L 315.628906 303.644531 L 430.84375 303.644531 L 430.84375 356.464844 L 432.457031 356.464844 C 455.949219 316.296875 499.632812 292.304688 546.136719 294.03125 C 667.777344 294.03125 690.207031 374.042969 690.207031 478.132812 Z M 180.210938 250.8125 C 141.746094 250.816406 110.554688 219.640625 110.550781 181.175781 C 110.542969 142.707031 141.71875 111.519531 180.183594 111.511719 C 218.648438 111.507812 249.835938 142.683594 249.84375 181.148438 C 249.847656 199.621094 242.511719 217.339844 229.453125 230.402344 C 216.394531 243.464844 198.679688 250.808594 180.210938 250.8125 M 240.21875 690.167969 L 120.074219 690.167969 L 120.074219 303.644531 L 240.21875 303.644531 Z M 749.988281 0.0585938 L 59.769531 0.0585938 C 27.144531 -0.308594 0.394531 25.820312 -0.00390625 58.441406 L -0.00390625 751.542969 C 0.382812 784.179688 27.128906 810.335938 59.769531 809.992188 L 749.988281 809.992188 C 782.691406 810.398438 809.542969 784.242188 809.996094 751.542969 L 809.996094 58.390625 C 809.53125 25.707031 782.675781 -0.421875 749.988281 0.00390625 " fill-opacity="1" fill-rule="nonzero"/></svg>