<svg xmlns="http://www.w3.org/2000/svg" xmlns:xlink="http://www.w3.org/1999/xlink" width="1080" zoomAndPan="magnify" viewBox="0 0 810 809.999993" height="1080" preserveAspectRatio="xMidYMid meet" version="1.0"><path fill="#6f2dbd" d="M 39.128906 564.019531 C 40.800781 564.019531 42.214844 562.644531 42.453125 560.710938 L 51.539062 488.699219 L 42.480469 415.046875 C 42.210938 413.109375 40.800781 411.726562 39.128906 411.726562 C 37.414062 411.726562 35.953125 413.140625 35.726562 415.046875 L 27.785156 488.699219 L 35.726562 560.683594 C 35.953125 562.617188 37.414062 564.019531 39.128906 564.019531 Z M 39.128906 564.019531 " fill-opacity="1" fill-rule="nonzero"/><path fill="#6f2dbd" d="M 9.171875 536.628906 C 10.8125 536.628906 12.144531 535.351562 12.386719 533.445312 L 19.425781 488.695312 L 12.386719 443.109375 C 12.140625 441.257812 10.8125 439.921875 9.171875 439.921875 C 7.457031 439.921875 6.128906 441.257812 5.886719 443.136719 L 0 488.699219 L 5.886719 533.433594 C 6.128906 535.328125 7.457031 536.628906 9.171875 536.628906 Z M 9.171875 536.628906 " fill-opacity="1" fill-rule="nonzero"/><path fill="#6f2dbd" d="M 74.957031 401.339844 C 74.742188 398.996094 73.027344 397.289062 70.898438 397.289062 C 68.789062 397.289062 67.070312 398.996094 66.875 401.339844 L 59.285156 488.699219 L 66.875 572.867188 C 67.070312 575.195312 68.789062 576.882812 70.898438 576.882812 C 73.027344 576.882812 74.742188 575.195312 74.957031 572.867188 L 83.542969 488.699219 Z M 74.957031 401.339844 " fill-opacity="1" fill-rule="nonzero"/><path fill="#6f2dbd" d="M 103.011719 580.273438 C 105.5 580.273438 107.515625 578.222656 107.757812 575.546875 L 115.871094 488.722656 L 107.757812 398.925781 C 107.515625 396.230469 105.5 394.207031 103.011719 394.207031 C 100.484375 394.207031 98.441406 396.234375 98.269531 398.941406 L 91.097656 488.722656 L 98.269531 575.546875 C 98.441406 578.226562 100.484375 580.273438 103.011719 580.273438 Z M 103.011719 580.273438 " fill-opacity="1" fill-rule="nonzero"/><path fill="#6f2dbd" d="M 135.34375 581.683594 C 138.242188 581.683594 140.570312 579.359375 140.808594 576.253906 L 140.785156 576.273438 L 148.425781 488.722656 L 140.785156 405.410156 C 140.566406 402.355469 138.242188 399.996094 135.339844 399.996094 C 132.398438 399.996094 130.082031 402.355469 129.90625 405.433594 L 123.152344 488.726562 L 129.90625 576.253906 C 130.085938 579.359375 132.398438 581.683594 135.34375 581.683594 Z M 135.34375 581.683594 " fill-opacity="1" fill-rule="nonzero"/><path fill="#6f2dbd" d="M 181.257812 488.746094 L 174.089844 353.28125 C 173.886719 349.847656 171.210938 347.109375 167.929688 347.109375 C 164.671875 347.109375 162.003906 349.84375 161.804688 353.28125 L 155.457031 488.746094 L 161.804688 576.273438 C 162.003906 579.726562 164.671875 582.425781 167.929688 582.425781 C 171.214844 582.425781 173.886719 579.726562 174.089844 576.273438 L 174.089844 576.296875 Z M 181.257812 488.746094 " fill-opacity="1" fill-rule="nonzero"/><path fill="#6f2dbd" d="M 200.84375 582.566406 C 204.457031 582.566406 207.457031 579.570312 207.628906 575.738281 L 207.628906 575.796875 L 214.328125 488.765625 L 207.628906 322.296875 C 207.457031 318.46875 204.457031 315.46875 200.84375 315.46875 C 197.144531 315.46875 194.171875 318.46875 193.96875 322.296875 L 188.070312 488.765625 L 193.996094 575.765625 C 194.171875 579.570312 197.144531 582.566406 200.84375 582.566406 Z M 200.84375 582.566406 " fill-opacity="1" fill-rule="nonzero"/><path fill="#6f2dbd" d="M 233.941406 300.875 C 229.871094 300.875 226.585938 304.21875 226.417969 308.433594 L 220.925781 488.792969 L 226.417969 574.882812 C 226.585938 579.074219 229.871094 582.394531 233.941406 582.394531 C 238.003906 582.394531 241.3125 579.101562 241.457031 574.867188 L 241.457031 574.910156 L 247.683594 488.792969 L 241.457031 308.433594 C 241.3125 304.191406 238 300.875 233.941406 300.875 Z M 233.941406 300.875 " fill-opacity="1" fill-rule="nonzero"/><path fill="#6f2dbd" d="M 267.328125 582.566406 C 271.796875 582.566406 275.359375 578.960938 275.527344 574.316406 L 275.527344 574.367188 L 281.285156 488.796875 L 275.527344 302.375 C 275.355469 297.746094 271.796875 294.125 267.328125 294.125 C 262.828125 294.125 259.214844 297.746094 259.144531 302.375 L 253.96875 488.796875 L 259.144531 574.367188 C 259.214844 578.960938 262.828125 582.566406 267.328125 582.566406 Z M 267.328125 582.566406 " fill-opacity="1" fill-rule="nonzero"/><path fill="#6f2dbd" d="M 300.988281 582.480469 C 305.8125 582.480469 309.726562 578.53125 309.875 573.523438 L 309.875 573.601562 L 315.171875 488.8125 L 309.875 307.128906 C 309.726562 302.125 305.8125 298.191406 300.988281 298.191406 C 296.128906 298.191406 292.210938 302.121094 292.070312 307.128906 L 287.414062 488.8125 L 292.097656 573.5625 C 292.210938 578.53125 296.128906 582.480469 300.988281 582.480469 Z M 300.988281 582.480469 " fill-opacity="1" fill-rule="nonzero"/><path fill="#6f2dbd" d="M 349.269531 488.8125 L 344.472656 313.753906 C 344.355469 308.351562 340.128906 304.113281 334.882812 304.113281 C 329.625 304.113281 325.394531 308.351562 325.285156 313.789062 L 320.980469 488.8125 L 325.285156 573.046875 C 325.394531 578.402344 329.625 582.648438 334.882812 582.648438 C 340.125 582.648438 344.355469 578.402344 344.472656 572.96875 L 344.472656 573.046875 Z M 349.269531 488.8125 " fill-opacity="1" fill-rule="nonzero"/><path fill="#6f2dbd" d="M 369.042969 582.804688 C 374.613281 582.804688 379.226562 578.167969 379.316406 572.46875 L 379.316406 572.511719 L 383.671875 488.855469 L 379.316406 280.542969 C 379.230469 274.820312 374.617188 270.195312 369.042969 270.195312 C 363.472656 270.195312 358.871094 274.84375 358.757812 280.574219 L 354.886719 488.773438 L 358.757812 572.515625 C 358.871094 578.167969 363.472656 582.804688 369.042969 582.804688 Z M 369.042969 582.804688 " fill-opacity="1" fill-rule="nonzero"/><path fill="#6f2dbd" d="M 403.085938 250.597656 C 397.066406 250.597656 392.1875 255.589844 392.085938 261.675781 L 387.585938 488.882812 L 392.113281 571.304688 C 392.1875 577.3125 397.070312 582.289062 403.085938 582.289062 C 409.011719 582.289062 413.984375 577.308594 414.011719 571.203125 L 414.011719 571.304688 L 418.925781 488.882812 L 414.011719 261.675781 C 413.984375 255.570312 409.011719 250.597656 403.085938 250.597656 Z M 403.085938 250.597656 " fill-opacity="1" fill-rule="nonzero"/><path fill="#6f2dbd" d="M 434.214844 582.882812 C 434.457031 582.902344 708.597656 583.03125 710.355469 583.03125 C 765.394531 583.03125 809.996094 537.882812 809.996094 482.167969 C 809.996094 426.484375 765.394531 381.328125 710.355469 381.328125 C 696.695312 381.328125 683.683594 384.117188 671.8125 389.175781 C 663.925781 298.261719 588.613281 226.96875 496.742188 226.96875 C 474.28125 226.96875 452.382812 231.453125 433.039062 239.035156 C 425.511719 241.976562 423.496094 245.011719 423.4375 250.890625 L 423.4375 570.949219 C 423.523438 577.128906 428.238281 582.269531 434.214844 582.882812 Z M 434.214844 582.882812 " fill-opacity="1" fill-rule="nonzero"/></svg>