<svg xmlns="http://www.w3.org/2000/svg" xmlns:xlink="http://www.w3.org/1999/xlink" width="1080" zoomAndPan="magnify" viewBox="0 0 810 809.999993" height="1080" preserveAspectRatio="xMidYMid meet" version="1.0"><defs><clipPath id="e0cedd2097"><path d="M 0 9.492188 L 810 9.492188 L 810 800 L 0 800 Z M 0 9.492188 " clip-rule="nonzero"/></clipPath></defs><g clip-path="url(#e0cedd2097)"><path fill="#6f2dbd" d="M 405.003906 9.492188 C 181.355469 9.492188 0 190.8125 0 414.496094 C 0 593.4375 116.046875 745.25 276.964844 798.800781 C 297.207031 802.550781 304.636719 790.015625 304.636719 779.320312 C 304.636719 769.660156 304.261719 737.757812 304.085938 703.914062 C 191.414062 728.414062 167.640625 656.128906 167.640625 656.128906 C 149.21875 609.316406 122.671875 596.871094 122.671875 596.871094 C 85.925781 571.734375 125.441406 572.25 125.441406 572.25 C 166.109375 575.105469 187.527344 613.984375 187.527344 613.984375 C 223.648438 675.902344 282.269531 658 305.382812 647.652344 C 309.015625 621.476562 319.511719 603.609375 331.09375 593.496094 C 241.140625 583.257812 146.574219 548.527344 146.574219 393.34375 C 146.574219 349.125 162.394531 312.996094 188.304688 284.632812 C 184.097656 274.433594 170.234375 233.242188 192.226562 177.453125 C 192.226562 177.453125 226.238281 166.570312 303.632812 218.96875 C 335.9375 209.996094 370.585938 205.496094 405.003906 205.339844 C 439.421875 205.496094 474.09375 209.996094 506.460938 218.96875 C 583.761719 166.570312 617.726562 177.453125 617.726562 177.453125 C 639.769531 233.242188 625.902344 274.433594 621.695312 284.632812 C 647.664062 312.996094 663.378906 349.125 663.378906 393.34375 C 663.378906 548.898438 568.632812 583.148438 478.449219 593.175781 C 492.976562 605.742188 505.917969 630.390625 505.917969 668.175781 C 505.917969 722.367188 505.449219 765.980469 505.449219 779.320312 C 505.449219 790.097656 512.738281 802.726562 533.269531 798.75 C 694.101562 745.136719 810 593.375 810 414.496094 C 810 190.8125 628.671875 9.492188 405.003906 9.492188 Z M 151.6875 586.429688 C 150.796875 588.441406 147.628906 589.042969 144.746094 587.660156 C 141.808594 586.339844 140.15625 583.597656 141.109375 581.578125 C 141.980469 579.507812 145.15625 578.929688 148.085938 580.316406 C 151.03125 581.640625 152.707031 584.410156 151.6875 586.429688 Z M 171.609375 604.203125 C 169.675781 605.996094 165.902344 605.164062 163.339844 602.332031 C 160.691406 599.507812 160.195312 595.734375 162.152344 593.914062 C 164.144531 592.125 167.804688 592.964844 170.460938 595.785156 C 173.109375 598.644531 173.628906 602.394531 171.609375 604.203125 Z M 185.277344 626.949219 C 182.792969 628.671875 178.738281 627.054688 176.226562 623.453125 C 173.746094 619.851562 173.746094 615.53125 176.28125 613.800781 C 178.796875 612.070312 182.792969 613.628906 185.335938 617.203125 C 187.8125 620.863281 187.8125 625.183594 185.277344 626.949219 Z M 208.390625 653.289062 C 206.167969 655.734375 201.441406 655.078125 197.980469 651.738281 C 194.441406 648.472656 193.453125 643.839844 195.679688 641.390625 C 197.925781 638.933594 202.683594 639.625 206.167969 642.9375 C 209.683594 646.199219 210.757812 650.867188 208.390625 653.289062 Z M 238.261719 662.179688 C 237.28125 665.351562 232.730469 666.792969 228.140625 665.445312 C 223.5625 664.058594 220.5625 660.34375 221.488281 657.136719 C 222.441406 653.945312 227.015625 652.441406 231.636719 653.882812 C 236.210938 655.265625 239.214844 658.953125 238.261719 662.179688 Z M 272.257812 665.953125 C 272.371094 669.292969 268.480469 672.0625 263.667969 672.121094 C 258.824219 672.230469 254.90625 669.527344 254.855469 666.238281 C 254.855469 662.867188 258.65625 660.125 263.5 660.042969 C 268.3125 659.949219 272.257812 662.632812 272.257812 665.953125 Z M 305.65625 664.671875 C 306.230469 667.929688 302.886719 671.277344 298.101562 672.167969 C 293.402344 673.027344 289.050781 671.015625 288.453125 667.785156 C 287.867188 664.445312 291.277344 661.097656 295.972656 660.230469 C 300.757812 659.398438 305.042969 661.359375 305.65625 664.671875 Z M 305.65625 664.671875 " fill-opacity="1" fill-rule="nonzero"/></g></svg>