<svg xmlns="http://www.w3.org/2000/svg" xmlns:xlink="http://www.w3.org/1999/xlink" width="1080" zoomAndPan="magnify" viewBox="0 0 810 809.999993" height="1080" preserveAspectRatio="xMidYMid meet" version="1.0"><path fill="#6f2dbd" d="M 404.5625 807.457031 L 115.148438 727.113281 L 50.65625 3.734375 L 759.335938 3.734375 L 694.773438 727 Z M 404.5625 807.457031 " fill-opacity="1" fill-rule="nonzero"/><path fill="#8c52ff" d="M 639.5 680.945312 L 694.671875 62.882812 L 404.996094 62.882812 L 404.996094 745.957031 Z M 639.5 680.945312 " fill-opacity="1" fill-rule="nonzero"/><path fill="#ebebeb" d="M 198.507812 331.171875 L 206.457031 419.890625 L 404.996094 419.890625 L 404.996094 331.171875 Z M 198.507812 331.171875 " fill-opacity="1" fill-rule="nonzero"/><path fill="#ebebeb" d="M 182.527344 151.601562 L 190.59375 240.324219 L 404.996094 240.324219 L 404.996094 151.601562 Z M 182.527344 151.601562 " fill-opacity="1" fill-rule="nonzero"/><path fill="#ebebeb" d="M 404.996094 561.585938 L 404.605469 561.6875 L 305.796875 535.007812 L 299.480469 464.25 L 210.421875 464.25 L 222.851562 603.554688 L 404.585938 654.003906 L 404.996094 653.890625 Z M 404.996094 561.585938 " fill-opacity="1" fill-rule="nonzero"/><path fill="#ffffff" d="M 610.914062 331.171875 L 626.929688 151.601562 L 404.6875 151.601562 L 404.6875 240.324219 L 529.703125 240.324219 L 521.628906 331.171875 L 404.6875 331.171875 L 404.6875 419.890625 L 513.9375 419.890625 L 503.636719 534.953125 L 404.6875 561.660156 L 404.6875 653.960938 L 586.566406 603.554688 L 587.902344 588.566406 L 608.75 354.996094 Z M 610.914062 331.171875 " fill-opacity="1" fill-rule="nonzero"/></svg>