<svg xmlns="http://www.w3.org/2000/svg" xmlns:xlink="http://www.w3.org/1999/xlink" width="1080" zoomAndPan="magnify" viewBox="0 0 810 809.999993" height="1080" preserveAspectRatio="xMidYMid meet" version="1.0"><path fill="#6f2dbd" d="M 758.816406 4.921875 L 694.347656 727.125 L 404.5625 807.460938 L 115.574219 727.238281 L 51.175781 4.921875 Z M 758.816406 4.921875 " fill-opacity="1" fill-rule="nonzero"/><path fill="#8c52ff" d="M 404.996094 746.054688 L 639.15625 681.136719 L 694.246094 63.980469 L 404.996094 63.980469 Z M 404.996094 746.054688 " fill-opacity="1" fill-rule="nonzero"/><path fill="#ebebeb" d="M 279.671875 241.160156 L 404.996094 241.160156 L 404.996094 152.570312 L 182.855469 152.570312 L 184.976562 176.339844 L 206.75 420.464844 L 404.996094 420.464844 L 404.996094 331.878906 L 287.769531 331.878906 Z M 279.671875 241.160156 " fill-opacity="1" fill-rule="nonzero"/><path fill="#ebebeb" d="M 299.636719 464.761719 L 210.707031 464.761719 L 223.117188 603.859375 L 404.585938 654.238281 L 404.996094 654.125 L 404.996094 561.953125 L 404.605469 562.058594 L 305.945312 535.414062 Z M 299.636719 464.761719 " fill-opacity="1" fill-rule="nonzero"/><path fill="#ffffff" d="M 404.6875 420.464844 L 513.777344 420.464844 L 503.492188 535.359375 L 404.6875 562.027344 L 404.6875 654.195312 L 586.300781 603.859375 L 587.632812 588.894531 L 608.449219 355.667969 L 610.613281 331.878906 L 404.6875 331.878906 Z M 404.6875 420.464844 " fill-opacity="1" fill-rule="nonzero"/><path fill="#ffffff" d="M 404.6875 240.945312 L 404.6875 241.160156 L 618.671875 241.160156 L 620.449219 221.25 L 624.488281 176.339844 L 626.605469 152.570312 L 404.6875 152.570312 Z M 404.6875 240.945312 " fill-opacity="1" fill-rule="nonzero"/></svg>