<svg xmlns="http://www.w3.org/2000/svg" xmlns:xlink="http://www.w3.org/1999/xlink" width="1080" zoomAndPan="magnify" viewBox="0 0 810 809.999993" height="1080" preserveAspectRatio="xMidYMid meet" version="1.0"><rect x="-81" width="972" fill="#6f2dbd" y="-80.999999" height="971.999992" fill-opacity="1"/><path fill="#000000" d="M 212.980469 676.894531 L 274.964844 639.382812 C 286.925781 660.585938 297.800781 678.523438 323.894531 678.523438 C 348.90625 678.523438 364.675781 668.738281 364.675781 630.683594 L 364.675781 371.867188 L 440.796875 371.867188 L 440.796875 631.757812 C 440.796875 710.597656 394.582031 746.484375 327.160156 746.484375 C 266.265625 746.484375 230.917969 714.945312 212.976562 676.890625 " fill-opacity="1" fill-rule="nonzero"/><path fill="#000000" d="M 482.144531 668.738281 L 544.121094 632.851562 C 560.4375 659.5 581.644531 679.070312 619.15625 679.070312 C 650.699219 679.070312 670.808594 663.300781 670.808594 641.550781 C 670.808594 615.453125 650.148438 606.210938 615.351562 590.988281 L 596.324219 582.828125 C 541.40625 559.453125 504.976562 530.09375 504.976562 468.105469 C 504.976562 411.015625 548.472656 367.515625 616.441406 367.515625 C 664.832031 367.515625 699.628906 384.375 724.640625 428.414062 L 665.371094 466.472656 C 652.324219 443.097656 638.191406 433.855469 616.441406 433.855469 C 594.148438 433.855469 580.011719 447.992188 580.011719 466.472656 C 580.011719 489.3125 594.148438 498.554688 626.769531 512.695312 L 645.796875 520.847656 C 710.5 548.582031 746.933594 576.851562 746.933594 640.464844 C 746.933594 708.976562 693.105469 746.492188 620.789062 746.492188 C 550.105469 746.492188 504.433594 712.78125 482.144531 668.738281 " fill-opacity="1" fill-rule="nonzero"/></svg>