<svg xmlns="http://www.w3.org/2000/svg" xmlns:xlink="http://www.w3.org/1999/xlink" width="1080" zoomAndPan="magnify" viewBox="0 0 810 809.999993" height="1080" preserveAspectRatio="xMidYMid meet" version="1.0"><path fill="#6f2dbd" d="M 298.605469 626.160156 C 298.605469 626.160156 267.707031 644.128906 320.59375 650.207031 C 384.664062 657.519531 417.410156 656.46875 488.015625 643.105469 C 488.015625 643.105469 506.578125 654.746094 532.503906 664.828125 C 374.222656 732.664062 174.285156 660.898438 298.605469 626.160156 " fill-opacity="1" fill-rule="nonzero"/><path fill="#6f2dbd" d="M 279.265625 537.640625 C 279.265625 537.640625 244.609375 563.289062 297.535156 568.765625 C 365.976562 575.824219 420.027344 576.402344 513.554688 558.394531 C 513.554688 558.394531 526.492188 571.507812 546.832031 578.679688 C 355.460938 634.640625 142.3125 583.09375 279.265625 537.640625 " fill-opacity="1" fill-rule="nonzero"/><path fill="#6f2dbd" d="M 442.316406 387.476562 C 481.316406 432.378906 432.066406 472.785156 432.066406 472.785156 C 432.066406 472.785156 531.097656 421.664062 485.617188 357.648438 C 443.140625 297.949219 410.566406 268.285156 586.90625 166.015625 C 586.90625 166.015625 310.113281 235.148438 442.316406 387.476562 " fill-opacity="1" fill-rule="nonzero"/><path fill="#6f2dbd" d="M 651.652344 691.636719 C 651.652344 691.636719 674.515625 710.476562 626.472656 725.050781 C 535.109375 752.726562 246.214844 761.085938 165.964844 726.152344 C 137.113281 713.601562 191.214844 696.1875 208.230469 692.53125 C 225.980469 688.683594 236.121094 689.402344 236.121094 689.402344 C 204.039062 666.800781 28.75 733.777344 147.085938 752.960938 C 469.796875 805.296875 735.359375 729.394531 651.652344 691.636719 " fill-opacity="1" fill-rule="nonzero"/><path fill="#6f2dbd" d="M 313.464844 445.921875 C 313.464844 445.921875 166.515625 480.824219 261.425781 493.496094 C 301.5 498.863281 381.386719 497.648438 455.800781 491.414062 C 516.613281 486.285156 577.679688 475.378906 577.679688 475.378906 C 577.679688 475.378906 556.234375 484.5625 540.722656 495.152344 C 391.496094 534.402344 103.222656 516.144531 186.210938 476 C 256.398438 442.070312 313.464844 445.921875 313.464844 445.921875 " fill-opacity="1" fill-rule="nonzero"/><path fill="#6f2dbd" d="M 577.074219 593.269531 C 728.769531 514.441406 658.628906 438.691406 609.675781 448.898438 C 597.675781 451.394531 592.328125 453.558594 592.328125 453.558594 C 592.328125 453.558594 596.78125 446.582031 605.289062 443.558594 C 702.136719 409.511719 776.621094 543.984375 574.023438 597.242188 C 574.023438 597.242188 576.371094 595.144531 577.074219 593.269531 " fill-opacity="1" fill-rule="nonzero"/><path fill="#6f2dbd" d="M 485.617188 0.875 C 485.617188 0.875 569.628906 84.914062 405.9375 214.144531 C 274.671875 317.804688 376.003906 376.910156 405.882812 444.441406 C 329.261719 375.3125 273.03125 314.457031 310.753906 257.816406 C 366.125 174.675781 519.511719 134.367188 485.617188 0.875 " fill-opacity="1" fill-rule="nonzero"/><path fill="#6f2dbd" d="M 328.371094 806.871094 C 473.976562 816.191406 697.574219 801.699219 702.871094 732.800781 C 702.871094 732.800781 692.691406 758.917969 582.53125 779.660156 C 458.253906 803.050781 304.972656 800.320312 214.0625 785.328125 C 214.0625 785.328125 232.671875 800.730469 328.371094 806.871094 " fill-opacity="1" fill-rule="nonzero"/></svg>