<svg xmlns="http://www.w3.org/2000/svg" xmlns:xlink="http://www.w3.org/1999/xlink" width="1080" zoomAndPan="magnify" viewBox="0 0 810 809.999993" height="1080" preserveAspectRatio="xMidYMid meet" version="1.0"><defs><clipPath id="2a56e56e12"><path d="M 0 6.328125 L 810 6.328125 L 810 801 L 0 801 Z M 0 6.328125 " clip-rule="nonzero"/></clipPath></defs><g clip-path="url(#2a56e56e12)"><path fill="#6f2dbd" d="M 745.605469 620.824219 C 701.566406 619.726562 667.4375 624.132812 638.808594 636.242188 C 630.554688 639.542969 617.339844 639.546875 616.238281 650.003906 C 620.644531 654.410156 621.195312 661.566406 625.046875 667.621094 C 631.65625 678.625 643.214844 693.492188 653.675781 701.203125 C 665.234375 710.007812 676.796875 718.816406 688.902344 726.523438 C 710.375 739.734375 734.597656 747.441406 755.515625 760.652344 C 767.628906 768.355469 779.734375 778.269531 791.84375 786.527344 C 797.902344 790.925781 801.753906 798.085938 809.460938 800.839844 L 809.460938 799.1875 C 805.605469 794.230469 804.503906 787.078125 800.65625 781.570312 C 795.152344 776.066406 789.644531 771.109375 784.140625 765.605469 C 768.175781 744.140625 748.359375 725.421875 726.886719 710.007812 C 709.277344 697.898438 670.738281 681.382812 663.582031 661.015625 C 663.582031 661.015625 663.03125 660.464844 662.480469 659.914062 C 674.59375 658.8125 688.902344 654.410156 700.464844 651.105469 C 719.183594 646.148438 736.246094 647.25 755.515625 642.300781 C 764.320312 640.097656 773.128906 637.34375 781.9375 634.589844 L 781.9375 629.640625 C 772.03125 619.726562 764.871094 606.519531 754.414062 597.160156 C 726.339844 572.933594 695.507812 549.265625 663.582031 529.449219 C 646.515625 518.441406 624.496094 511.28125 606.332031 501.925781 C 599.726562 498.617188 588.714844 496.96875 584.863281 491.464844 C 574.953125 479.355469 569.449219 463.390625 562.292969 449.078125 C 546.332031 418.796875 530.914062 385.222656 517.152344 353.296875 C 507.246094 331.824219 501.191406 310.355469 489.078125 290.539062 C 432.378906 196.957031 370.722656 140.257812 276.039062 84.65625 C 255.671875 73.097656 231.453125 68.140625 205.578125 62.085938 C 191.820312 61.535156 178.054688 60.4375 164.292969 59.882812 C 155.484375 56.03125 146.675781 45.574219 138.96875 40.617188 C 107.597656 20.796875 26.671875 -22.136719 3.550781 34.5625 C -11.3125 70.34375 25.570312 105.574219 38.230469 123.742188 C 47.59375 136.402344 59.699219 150.714844 66.308594 165.027344 C 70.160156 174.378906 71.257812 184.296875 75.113281 194.203125 C 83.921875 218.417969 92.175781 245.398438 103.738281 267.96875 C 109.796875 279.527344 116.398438 291.640625 124.109375 302.097656 C 128.511719 308.152344 136.214844 310.90625 137.871094 320.816406 C 130.164062 331.824219 129.613281 348.339844 125.207031 362.101562 C 105.390625 424.304688 113.097656 501.375 141.171875 547.0625 C 149.976562 560.820312 170.898438 591.105469 198.972656 579.542969 C 223.742188 569.636719 218.238281 538.257812 225.394531 510.730469 C 227.050781 504.121094 225.949219 499.722656 229.25 495.320312 C 229.25 495.867188 229.25 496.421875 229.25 496.421875 C 236.957031 511.832031 244.660156 526.699219 251.816406 542.109375 C 268.882812 569.082031 298.609375 597.160156 323.378906 615.875 C 336.597656 625.78125 347.054688 642.847656 363.566406 648.90625 L 363.566406 647.25 L 362.464844 647.25 C 359.160156 642.296875 354.210938 640.097656 349.804688 636.242188 C 339.898438 626.332031 328.886719 614.222656 321.179688 603.214844 C 298.0625 572.382812 277.691406 538.257812 259.527344 503.023438 C 250.71875 485.960938 243.011719 467.242188 235.855469 450.179688 C 232.550781 443.570312 232.550781 433.664062 227.046875 430.363281 C 218.789062 442.472656 206.679688 452.929688 200.621094 467.796875 C 190.167969 491.464844 189.0625 520.640625 185.210938 550.917969 C 183.011719 551.46875 184.109375 550.917969 183.007812 552.019531 C 165.394531 547.613281 159.335938 529.449219 152.730469 514.035156 C 136.214844 474.949219 133.464844 412.195312 147.777344 367.058594 C 151.632812 355.496094 168.144531 319.164062 161.539062 308.15625 C 158.238281 297.695312 147.226562 291.640625 141.171875 283.382812 C 134.015625 272.921875 126.308594 259.710938 121.355469 248.152344 C 108.140625 217.324219 101.535156 183.195312 87.222656 152.363281 C 80.617188 138.050781 69.058594 123.191406 59.699219 109.980469 C 49.242188 95.117188 37.679688 84.65625 29.421875 67.039062 C 26.675781 60.984375 22.816406 51.078125 27.21875 44.472656 C 28.320312 40.066406 30.523438 38.417969 34.929688 37.316406 C 42.082031 31.257812 62.453125 38.964844 69.609375 42.269531 C 89.976562 50.523438 107.039062 58.234375 124.105469 69.792969 C 131.8125 75.296875 140.070312 85.757812 149.976562 88.511719 L 161.539062 88.511719 C 179.15625 92.359375 198.972656 89.613281 215.488281 94.5625 C 244.664062 103.917969 271.082031 117.683594 294.757812 132.546875 C 366.875 178.238281 426.320312 243.199219 466.507812 320.816406 C 473.117188 333.472656 475.863281 345.039062 481.921875 358.246094 C 493.484375 385.222656 507.796875 412.746094 519.355469 439.167969 C 530.914062 465.039062 541.921875 491.464844 558.4375 512.9375 C 566.699219 524.492188 599.722656 530.546875 614.585938 536.605469 C 625.597656 541.558594 642.664062 545.964844 652.574219 552.019531 C 671.285156 563.574219 690.003906 576.789062 707.621094 589.449219 C 716.429688 596.054688 743.953125 609.820312 745.605469 620.824219 Z M 745.605469 620.824219 " fill-opacity="1" fill-rule="nonzero"/></g><path fill="#6f2dbd" d="M 184.105469 142.453125 C 174.746094 142.453125 168.144531 143.558594 161.539062 145.210938 C 161.539062 145.207031 161.539062 145.761719 161.539062 146.3125 L 162.640625 146.3125 C 167.046875 155.117188 174.746094 161.175781 180.25 168.878906 C 184.660156 177.6875 188.507812 186.496094 192.914062 195.304688 C 193.464844 194.753906 194.015625 194.203125 194.015625 194.203125 C 201.726562 188.695312 205.574219 179.890625 205.574219 166.679688 C 202.269531 162.824219 201.722656 158.972656 198.96875 155.117188 C 195.667969 149.609375 188.507812 146.859375 184.105469 142.453125 Z M 184.105469 142.453125 " fill-opacity="1" fill-rule="nonzero"/></svg>