<svg xmlns="http://www.w3.org/2000/svg" xmlns:xlink="http://www.w3.org/1999/xlink" width="1080" zoomAndPan="magnify" viewBox="0 0 810 809.999993" height="1080" preserveAspectRatio="xMidYMid meet" version="1.0"><path fill="#6f2dbd" d="M 63.28125 0 L 746.71875 0 C 781.667969 0 810 28.332031 810 63.28125 L 810 746.71875 C 810 781.667969 781.667969 810 746.71875 810 L 63.28125 810 C 28.332031 810 0 781.667969 0 746.71875 L 0 63.28125 C 0 28.332031 28.332031 0 63.28125 0 Z M 63.28125 0 " fill-opacity="1" fill-rule="nonzero"/><path fill="#000000" d="M 476.25 634.316406 L 476.25 721.707031 C 490.460938 728.992188 507.273438 734.453125 526.675781 738.09375 C 546.082031 741.734375 566.535156 743.554688 588.039062 743.554688 C 608.988281 743.554688 628.898438 741.550781 647.757812 737.546875 C 666.613281 733.539062 683.152344 726.941406 697.363281 717.75 C 711.574219 708.554688 722.828125 696.535156 731.121094 681.695312 C 739.410156 666.859375 743.554688 648.519531 743.554688 626.671875 C 743.554688 610.832031 741.183594 596.949219 736.449219 585.023438 C 731.710938 573.097656 724.878906 562.492188 715.949219 553.207031 C 707.023438 543.921875 696.316406 535.59375 683.835938 528.21875 C 671.355469 520.847656 657.277344 513.882812 641.605469 507.328125 C 630.125 502.59375 619.832031 498 610.722656 493.535156 C 601.613281 489.074219 593.867188 484.527344 587.492188 479.878906 C 581.113281 475.238281 576.191406 470.320312 572.730469 465.132812 C 569.269531 459.945312 567.539062 454.074219 567.539062 447.519531 C 567.539062 441.511719 569.085938 436.097656 572.183594 431.269531 C 575.28125 426.445312 579.65625 422.304688 585.304688 418.847656 C 590.953125 415.382812 597.875 412.703125 606.074219 410.785156 C 614.273438 408.875 623.386719 407.921875 633.40625 407.921875 C 640.699219 407.921875 648.394531 408.46875 656.5 409.558594 C 664.609375 410.652344 672.765625 412.335938 680.964844 414.613281 C 689.164062 416.886719 697.132812 419.753906 704.878906 423.214844 C 712.621094 426.675781 719.777344 430.679688 726.335938 435.230469 L 726.335938 353.574219 C 713.035156 348.476562 698.5 344.699219 682.742188 342.242188 C 666.980469 339.78125 648.894531 338.554688 628.488281 338.554688 C 607.714844 338.554688 588.039062 340.785156 569.453125 345.246094 C 550.867188 349.703125 534.511719 356.667969 520.390625 366.136719 C 506.269531 375.605469 495.109375 387.667969 486.90625 402.324219 C 478.710938 416.980469 474.609375 434.5 474.609375 454.894531 C 474.609375 480.929688 482.125 503.140625 497.160156 521.527344 C 512.191406 539.914062 535.011719 555.484375 565.625 568.226562 C 577.648438 573.144531 588.855469 577.964844 599.242188 582.703125 C 609.628906 587.4375 618.601562 592.351562 626.164062 597.449219 C 633.726562 602.546875 639.695312 608.097656 644.066406 614.105469 C 648.441406 620.113281 650.625 626.941406 650.625 634.589844 C 650.625 640.230469 649.257812 645.46875 646.527344 650.292969 C 643.792969 655.117188 639.648438 659.304688 634.089844 662.855469 C 628.535156 666.40625 621.609375 669.179688 613.320312 671.183594 C 605.027344 673.1875 595.324219 674.1875 584.210938 674.1875 C 565.257812 674.1875 546.492188 670.867188 527.90625 664.21875 C 509.320312 657.574219 492.101562 647.609375 476.25 634.316406 Z M 330.585938 416.839844 L 442.96875 416.839844 L 442.96875 344.882812 L 129.726562 344.882812 L 129.726562 416.839844 L 241.558594 416.839844 L 241.558594 737.226562 L 330.585938 737.226562 Z M 330.585938 416.839844 " fill-opacity="1" fill-rule="nonzero"/></svg>