<svg xmlns="http://www.w3.org/2000/svg" xmlns:xlink="http://www.w3.org/1999/xlink" width="1080" zoomAndPan="magnify" viewBox="0 0 810 809.999993" height="1080" preserveAspectRatio="xMidYMid meet" version="1.0"><defs><clipPath id="e0a924edce"><path d="M 46.246094 0 L 763.996094 0 L 763.996094 809 L 46.246094 809 Z M 46.246094 0 " clip-rule="nonzero"/></clipPath></defs><g clip-path="url(#e0a924edce)"><path fill="#6f2dbd" d="M 404.996094 808.496094 C 393.855469 808.496094 383.457031 805.523438 373.800781 800.324219 L 275.015625 741.644531 C 260.160156 733.476562 267.585938 730.503906 272.042969 729.019531 C 292.097656 722.335938 295.8125 720.847656 316.609375 708.964844 C 318.835938 707.480469 321.808594 708.222656 324.035156 709.707031 L 399.796875 755.015625 C 402.769531 756.5 406.484375 756.5 408.710938 755.015625 L 705.070312 583.4375 C 708.042969 581.953125 709.527344 578.980469 709.527344 575.269531 L 709.527344 232.855469 C 709.527344 229.144531 708.042969 226.171875 705.070312 224.6875 L 408.710938 53.851562 C 405.742188 52.367188 402.027344 52.367188 399.796875 53.851562 L 103.4375 224.6875 C 100.46875 226.171875 98.980469 229.886719 98.980469 232.855469 L 98.980469 575.269531 C 98.980469 578.238281 100.46875 581.953125 103.4375 583.4375 L 184.398438 630.234375 C 228.222656 652.515625 255.703125 626.519531 255.703125 600.523438 L 255.703125 262.566406 C 255.703125 258.109375 259.417969 253.65625 264.617188 253.65625 L 302.496094 253.65625 C 306.953125 253.65625 311.410156 257.367188 311.410156 262.566406 L 311.410156 600.523438 C 311.410156 659.199219 279.472656 693.367188 223.765625 693.367188 C 206.679688 693.367188 193.3125 693.367188 155.429688 674.796875 L 77.441406 630.234375 C 58.128906 619.089844 46.246094 598.292969 46.246094 576.011719 L 46.246094 233.601562 C 46.246094 211.316406 58.128906 190.519531 77.441406 179.378906 L 373.800781 7.800781 C 392.371094 -2.597656 417.625 -2.597656 436.195312 7.800781 L 732.554688 179.378906 C 751.867188 190.519531 763.75 211.316406 763.75 233.601562 L 763.75 576.011719 C 763.75 598.292969 751.867188 619.089844 732.554688 630.234375 L 436.195312 801.808594 C 426.539062 806.265625 415.394531 808.496094 404.996094 808.496094 Z M 496.355469 573.039062 C 366.375 573.039062 339.636719 513.621094 339.636719 463.113281 C 339.636719 458.65625 343.347656 454.199219 348.546875 454.199219 L 387.171875 454.199219 C 391.628906 454.199219 395.339844 457.171875 395.339844 461.625 C 401.285156 500.992188 418.367188 520.304688 497.097656 520.304688 C 559.492188 520.304688 586.230469 506.191406 586.230469 472.769531 C 586.230469 453.457031 578.804688 439.34375 481.5 429.6875 C 400.542969 421.519531 350.035156 403.691406 350.035156 339.070312 C 350.035156 278.90625 400.542969 243.253906 485.214844 243.253906 C 580.289062 243.253906 627.082031 275.9375 633.023438 347.242188 C 633.023438 349.46875 632.28125 351.699219 630.796875 353.925781 C 629.308594 355.414062 627.082031 356.898438 624.855469 356.898438 L 586.230469 356.898438 C 582.515625 356.898438 578.804688 353.925781 578.058594 350.214844 C 569.148438 309.359375 546.121094 295.992188 485.214844 295.992188 C 416.882812 295.992188 408.710938 319.761719 408.710938 337.585938 C 408.710938 359.125 418.367188 365.8125 510.46875 377.695312 C 601.828125 389.578125 644.910156 406.664062 644.910156 470.539062 C 644.164062 535.902344 590.6875 573.039062 496.355469 573.039062 Z M 496.355469 573.039062 " fill-opacity="1" fill-rule="nonzero"/></g></svg>