<svg xmlns="http://www.w3.org/2000/svg" xmlns:xlink="http://www.w3.org/1999/xlink" width="1080" zoomAndPan="magnify" viewBox="0 0 810 809.999993" height="1080" preserveAspectRatio="xMidYMid meet" version="1.0"><path fill="#6f2dbd" d="M 270 810 C 344.519531 810 405 749.519531 405 675 L 405 540 L 270 540 C 195.480469 540 135 600.480469 135 675 C 135 749.519531 195.480469 810 270 810 Z M 270 810 " fill-opacity="1" fill-rule="nonzero"/><path fill="#6f2dbd" d="M 135 405 C 135 330.480469 195.480469 270 270 270 L 405 270 L 405 540 L 270 540 C 195.480469 540 135 479.519531 135 405 Z M 135 405 " fill-opacity="1" fill-rule="nonzero"/><path fill="#6f2dbd" d="M 135 135 C 135 60.480469 195.480469 0 270 0 L 405 0 L 405 270 L 270 270 C 195.480469 270 135 209.519531 135 135 Z M 135 135 " fill-opacity="1" fill-rule="nonzero"/><path fill="#6f2dbd" d="M 405 0 L 540 0 C 614.519531 0 675 60.480469 675 135 C 675 209.519531 614.519531 270 540 270 L 405 270 Z M 405 0 " fill-opacity="1" fill-rule="nonzero"/><path fill="#6f2dbd" d="M 675 405 C 675 479.519531 614.519531 540 540 540 C 465.480469 540 405 479.519531 405 405 C 405 330.480469 465.480469 270 540 270 C 614.519531 270 675 330.480469 675 405 Z M 675 405 " fill-opacity="1" fill-rule="nonzero"/></svg>