<svg xmlns="http://www.w3.org/2000/svg" xmlns:xlink="http://www.w3.org/1999/xlink" width="1080" zoomAndPan="magnify" viewBox="0 0 810 809.999993" height="1080" preserveAspectRatio="xMidYMid meet" version="1.0"><defs><clipPath id="92eab77e4c"><path d="M 0 322.734375 L 810 322.734375 L 810 486.984375 L 0 486.984375 Z M 0 322.734375 " clip-rule="nonzero"/></clipPath></defs><g clip-path="url(#92eab77e4c)"><path fill="#6f2dbd" d="M 679.550781 322.800781 L 679.550781 348.84375 L 623.582031 348.84375 L 623.582031 485.84375 L 595.597656 485.84375 L 595.597656 348.84375 L 538.464844 348.84375 L 538.464844 322.800781 Z M 685.839844 470.308594 C 687.8125 470.308594 689.539062 471.019531 690.996094 472.441406 C 692.476562 473.859375 693.214844 475.5625 693.238281 477.542969 C 693.214844 478.886719 692.875 480.121094 692.191406 481.222656 C 691.492188 482.34375 690.601562 483.222656 689.480469 483.855469 C 688.378906 484.511719 687.167969 484.847656 685.839844 484.847656 C 683.792969 484.847656 682.046875 484.136719 680.589844 482.714844 C 679.128906 481.296875 678.40625 479.578125 678.425781 477.542969 C 678.40625 475.5625 679.128906 473.859375 680.589844 472.441406 C 682.046875 471.019531 683.792969 470.308594 685.839844 470.308594 Z M 131.175781 485.84375 L 27.984375 357.585938 L 27.984375 485.773438 L 0 485.773438 L 0 322.734375 L 34.980469 322.734375 L 165.347656 484.621094 L 165.351562 348.84375 L 165.339844 322.800781 L 306.425781 322.800781 L 306.425781 348.84375 L 193.335938 348.84375 L 193.335938 390.734375 L 284.285156 390.734375 L 284.285156 416.777344 L 193.335938 416.777344 L 193.335938 459.800781 L 306.425781 459.800781 L 306.425781 485.84375 Z M 396.117188 416.527344 L 414.457031 439.332031 L 376.875 486.035156 L 340.148438 486.035156 Z M 376.875 322.871094 L 424.226562 381.675781 L 471.429688 323.050781 L 508.054688 322.996094 L 442.5625 404.445312 L 508.15625 485.910156 L 471.429688 485.910156 L 340.253906 322.871094 Z M 733.605469 416.164062 L 746.007812 416.164062 L 746.007812 463.9375 C 745.988281 468.328125 745.039062 472.085938 743.179688 475.242188 C 741.304688 478.402344 738.707031 480.8125 735.367188 482.511719 C 732.050781 484.191406 728.164062 485.050781 723.746094 485.050781 C 719.707031 485.050781 716.085938 484.324219 712.863281 482.902344 C 709.636719 481.484375 707.078125 479.351562 705.203125 476.550781 C 703.304688 473.746094 702.375 470.253906 702.375 466.070312 L 714.796875 466.070312 C 714.816406 467.898438 715.230469 469.488281 716.027344 470.816406 C 716.824219 472.140625 717.921875 473.148438 719.328125 473.859375 C 720.746094 474.570312 722.378906 474.925781 724.21875 474.925781 C 726.210938 474.925781 727.917969 474.515625 729.300781 473.671875 C 730.683594 472.851562 731.746094 471.617188 732.488281 469.972656 C 733.207031 468.347656 733.585938 466.332031 733.605469 463.9375 Z M 797.03125 434.847656 C 796.726562 431.949219 795.398438 429.691406 793.085938 428.082031 C 790.753906 426.457031 787.738281 425.65625 784.039062 425.65625 C 781.445312 425.65625 779.207031 426.046875 777.347656 426.8125 C 775.492188 427.597656 774.050781 428.644531 773.0625 429.96875 C 772.078125 431.296875 771.585938 432.808594 771.546875 434.511719 C 771.546875 435.929688 771.886719 437.164062 772.550781 438.191406 C 773.214844 439.238281 774.105469 440.117188 775.261719 440.828125 C 776.398438 441.554688 777.667969 442.152344 779.054688 442.636719 C 780.457031 443.125 781.863281 443.535156 783.265625 443.871094 L 789.730469 445.460938 C 792.328125 446.058594 794.851562 446.859375 797.257812 447.890625 C 799.664062 448.898438 801.847656 450.1875 803.761719 451.738281 C 805.675781 453.289062 807.195312 455.15625 808.3125 457.34375 C 809.429688 459.527344 810 462.089844 810 465.042969 C 810 469.019531 808.976562 472.515625 806.90625 475.542969 C 804.84375 478.550781 801.863281 480.902344 797.957031 482.605469 C 794.070312 484.285156 789.371094 485.144531 783.832031 485.144531 C 778.484375 485.144531 773.820312 484.324219 769.898438 482.679688 C 765.953125 481.054688 762.878906 478.660156 760.660156 475.523438 C 758.445312 472.382812 757.25 468.554688 757.078125 464.050781 L 769.367188 464.050781 C 769.535156 466.40625 770.296875 468.367188 771.585938 469.957031 C 772.890625 471.523438 774.597656 472.683594 776.683594 473.46875 C 778.789062 474.234375 781.140625 474.625 783.738281 474.625 C 786.449219 474.625 788.839844 474.214844 790.90625 473.410156 C 792.953125 472.609375 794.566406 471.488281 795.722656 470.03125 C 796.898438 468.589844 797.484375 466.890625 797.503906 464.949219 C 797.484375 463.171875 796.953125 461.695312 795.929688 460.539062 C 794.886719 459.378906 793.445312 458.40625 791.605469 457.625 C 789.75 456.839844 787.585938 456.128906 785.121094 455.511719 L 777.273438 453.53125 C 771.601562 452.09375 767.109375 449.90625 763.828125 446.972656 C 760.53125 444.039062 758.898438 440.152344 758.898438 435.277344 C 758.898438 431.277344 759.996094 427.765625 762.21875 424.757812 C 764.414062 421.75 767.433594 419.414062 771.242188 417.75 C 775.074219 416.070312 779.398438 415.246094 784.210938 415.246094 C 789.105469 415.246094 793.390625 416.070312 797.085938 417.75 C 800.785156 419.414062 803.6875 421.730469 805.789062 424.683594 C 807.894531 427.636719 808.996094 431.015625 809.050781 434.847656 Z M 797.03125 434.847656 " fill-opacity="1" fill-rule="nonzero"/></g></svg>