<svg xmlns="http://www.w3.org/2000/svg" xmlns:xlink="http://www.w3.org/1999/xlink" width="1080" zoomAndPan="magnify" viewBox="0 0 810 809.999993" height="1080" preserveAspectRatio="xMidYMid meet" version="1.0"><defs><clipPath id="a814060af6"><path d="M 0 44.296875 L 810 44.296875 L 810 765 L 0 765 Z M 0 44.296875 " clip-rule="nonzero"/></clipPath></defs><g clip-path="url(#a814060af6)"><path fill="#6f2dbd" d="M 665.984375 277.878906 C 657.578125 274.988281 648.871094 272.25 639.90625 269.664062 C 641.382812 263.648438 642.734375 257.714844 643.9375 251.878906 C 663.675781 156.066406 650.769531 78.882812 606.699219 53.46875 C 564.445312 29.101562 495.339844 54.507812 425.542969 115.246094 C 418.832031 121.085938 412.101562 127.273438 405.375 133.753906 C 400.890625 129.464844 396.417969 125.320312 391.953125 121.359375 C 318.808594 56.410156 245.488281 29.042969 201.464844 54.527344 C 159.25 78.964844 146.746094 151.527344 164.515625 242.328125 C 166.230469 251.101562 168.234375 260.054688 170.503906 269.164062 C 160.125 272.109375 150.109375 275.25 140.523438 278.589844 C 54.769531 308.488281 0 355.34375 0 403.949219 C 0 454.148438 58.792969 504.5 148.113281 535.027344 C 155.164062 537.4375 162.476562 539.714844 170.015625 541.878906 C 167.570312 551.726562 165.441406 561.378906 163.65625 570.792969 C 146.714844 660.015625 159.945312 730.863281 202.046875 755.148438 C 245.535156 780.226562 318.519531 754.449219 389.589844 692.324219 C 395.207031 687.414062 400.847656 682.207031 406.492188 676.75 C 413.8125 683.796875 421.121094 690.46875 428.390625 696.726562 C 497.230469 755.964844 565.222656 779.886719 607.285156 755.535156 C 650.730469 730.382812 664.851562 654.277344 646.519531 561.679688 C 645.121094 554.605469 643.492188 547.382812 641.660156 540.027344 C 646.785156 538.511719 651.820312 536.949219 656.726562 535.324219 C 749.582031 504.554688 810 454.820312 810 403.949219 C 810 355.167969 753.464844 307.996094 665.984375 277.878906 Z M 645.84375 502.476562 C 641.414062 503.941406 636.867188 505.359375 632.238281 506.734375 C 621.988281 474.28125 608.152344 439.773438 591.21875 404.117188 C 607.375 369.3125 620.675781 335.246094 630.640625 303.003906 C 638.925781 305.398438 646.96875 307.929688 654.71875 310.597656 C 729.675781 336.402344 775.398438 374.554688 775.398438 403.949219 C 775.398438 435.261719 726.019531 475.910156 645.84375 502.476562 Z M 612.574219 568.398438 C 620.679688 609.34375 621.835938 646.363281 616.46875 675.304688 C 611.644531 701.308594 601.941406 718.644531 589.945312 725.589844 C 564.421875 740.363281 509.832031 721.15625 450.957031 670.496094 C 444.210938 664.6875 437.410156 658.488281 430.589844 651.925781 C 453.414062 626.960938 476.226562 597.945312 498.488281 565.714844 C 537.644531 562.242188 574.640625 556.558594 608.191406 548.804688 C 609.84375 555.46875 611.308594 562.007812 612.574219 568.398438 Z M 276.148438 723.035156 C 251.207031 731.84375 231.34375 732.09375 219.335938 725.171875 C 193.785156 710.433594 183.164062 653.550781 197.652344 577.246094 C 199.3125 568.507812 201.289062 559.53125 203.566406 550.355469 C 236.746094 557.691406 273.46875 562.972656 312.722656 566.152344 C 335.132812 597.691406 358.601562 626.675781 382.253906 652.058594 C 377.085938 657.046875 371.941406 661.796875 366.820312 666.269531 C 335.394531 693.742188 303.902344 713.230469 276.148438 723.035156 Z M 159.304688 502.285156 C 119.808594 488.785156 87.191406 471.242188 64.835938 452.09375 C 44.746094 434.890625 34.601562 417.808594 34.601562 403.949219 C 34.601562 374.453125 78.574219 336.835938 151.914062 311.265625 C 160.8125 308.160156 170.128906 305.238281 179.796875 302.492188 C 189.929688 335.460938 203.226562 369.933594 219.273438 404.792969 C 203.019531 440.167969 189.535156 475.1875 179.300781 508.546875 C 172.40625 506.566406 165.730469 504.480469 159.304688 502.285156 Z M 198.472656 235.683594 C 183.25 157.886719 193.359375 99.203125 218.800781 84.476562 C 245.898438 68.785156 305.820312 91.15625 368.976562 147.234375 C 373.015625 150.816406 377.066406 154.570312 381.132812 158.449219 C 357.597656 183.71875 334.34375 212.488281 312.128906 243.839844 C 274.035156 247.371094 237.566406 253.042969 204.039062 260.636719 C 201.933594 252.160156 200.066406 243.828125 198.472656 235.683594 Z M 547.871094 321.960938 C 539.855469 308.117188 531.625 294.597656 523.238281 281.449219 C 549.082031 284.71875 573.84375 289.054688 597.097656 294.363281 C 590.117188 316.734375 581.414062 340.128906 571.171875 364.109375 C 563.824219 350.160156 556.054688 336.097656 547.871094 321.960938 Z M 405.386719 183.179688 C 421.347656 200.472656 437.332031 219.777344 453.050781 240.722656 C 437.210938 239.976562 421.171875 239.585938 405 239.585938 C 388.980469 239.585938 373.0625 239.964844 357.316406 240.703125 C 373.054688 219.949219 389.175781 200.671875 405.386719 183.179688 Z M 261.992188 322.199219 C 253.984375 336.082031 246.355469 350.070312 239.125 364.085938 C 229.046875 340.1875 220.429688 316.6875 213.386719 293.996094 C 236.496094 288.824219 261.140625 284.59375 286.820312 281.390625 C 278.3125 294.660156 270.019531 308.273438 261.992188 322.195312 Z M 287.558594 528.976562 C 261.027344 526.015625 236.011719 522.007812 212.910156 516.976562 C 220.0625 493.882812 228.875 469.878906 239.164062 445.46875 C 246.414062 459.472656 254.070312 473.464844 262.128906 487.378906 C 270.335938 501.554688 278.835938 515.4375 287.558594 528.976562 Z M 406.34375 627.160156 C 389.945312 609.464844 373.585938 589.890625 357.609375 568.835938 C 373.117188 569.445312 388.929688 569.753906 405 569.753906 C 421.511719 569.753906 437.832031 569.382812 453.894531 568.667969 C 438.121094 590.101562 422.195312 609.707031 406.34375 627.160156 Z M 571.503906 444.222656 C 582.328125 468.898438 591.453125 492.773438 598.703125 515.476562 C 575.214844 520.835938 549.859375 525.152344 523.144531 528.355469 C 531.550781 515.03125 539.851562 501.285156 548.007812 487.140625 C 556.257812 472.832031 564.09375 458.503906 571.503906 444.222656 Z M 518.035156 469.855469 C 505.371094 491.808594 492.375 512.765625 479.175781 532.546875 C 455.140625 534.265625 430.308594 535.152344 405 535.152344 C 379.792969 535.152344 355.273438 534.371094 331.664062 532.835938 C 317.933594 512.792969 304.652344 491.773438 292.070312 470.042969 L 292.074219 470.042969 C 279.527344 448.371094 267.976562 426.511719 257.511719 404.78125 C 267.976562 382.996094 279.492188 361.117188 291.96875 339.480469 L 291.964844 339.484375 C 304.476562 317.792969 317.640625 296.875 331.242188 276.960938 C 355.332031 275.136719 380.035156 274.1875 405 274.1875 C 430.078125 274.1875 454.8125 275.144531 478.894531 276.984375 C 492.289062 296.753906 505.363281 317.605469 517.921875 339.296875 C 530.621094 361.238281 542.289062 382.972656 552.839844 404.289062 C 542.320312 425.972656 530.679688 447.925781 518.035156 469.855469 Z M 589.417969 83.445312 C 616.539062 99.085938 627.089844 162.171875 610.046875 244.894531 C 608.960938 250.171875 607.734375 255.550781 606.40625 260.996094 C 572.800781 253.242188 536.308594 247.472656 498.101562 243.890625 C 475.847656 212.195312 452.78125 183.378906 429.632812 158.433594 C 435.855469 152.445312 442.070312 146.738281 448.261719 141.347656 C 508.058594 89.308594 563.953125 68.761719 589.417969 83.445312 Z M 405 331.621094 C 444.945312 331.621094 477.332031 364 477.332031 403.949219 C 477.332031 443.894531 444.945312 476.28125 405 476.28125 C 365.054688 476.28125 332.667969 443.894531 332.667969 403.949219 C 332.667969 364 365.054688 331.621094 405 331.621094 Z M 405 331.621094 " fill-opacity="1" fill-rule="nonzero"/></g></svg>