<svg xmlns="http://www.w3.org/2000/svg" xmlns:xlink="http://www.w3.org/1999/xlink" width="1080" zoomAndPan="magnify" viewBox="0 0 810 809.999993" height="1080" preserveAspectRatio="xMidYMid meet" version="1.0"><defs><clipPath id="604c745c14"><path d="M 3.140625 0 L 807 0 L 807 808 L 3.140625 808 Z M 3.140625 0 " clip-rule="nonzero"/></clipPath></defs><g clip-path="url(#604c745c14)"><path fill="#6f2dbd" d="M 406.675781 0 C 513.726562 0.0546875 614.207031 41.726562 689.757812 117.367188 C 765.3125 193.003906 806.898438 293.554688 806.859375 400.46875 C 806.769531 618.914062 630.804688 797.050781 413.289062 800.589844 L 406.683594 800.644531 L 406.519531 800.644531 C 340.570312 800.621094 275.757812 784.335938 217.988281 753.40625 L 215.285156 751.945312 L 3.140625 807.589844 L 59.914062 600.210938 C 24.898438 539.535156 6.46875 470.683594 6.5 400.148438 C 6.589844 179.511719 186.105469 0 406.675781 0 Z M 406.8125 67.59375 C 223.347656 67.59375 74.136719 216.792969 74.0625 400.183594 C 74.039062 462.070312 91.09375 522.378906 123.414062 574.78125 L 124.917969 577.195312 L 132.828125 589.78125 L 99.226562 712.511719 L 225.109375 679.496094 L 237.257812 686.695312 C 287.511719 716.519531 345.007812 732.53125 403.707031 733.050781 L 406.546875 733.0625 L 406.683594 733.0625 C 590.007812 733.0625 739.214844 583.851562 739.292969 400.449219 C 739.324219 311.578125 704.761719 228.007812 641.964844 165.136719 C 579.164062 102.269531 495.652344 67.621094 406.8125 67.59375 Z M 265.003906 215.351562 C 271.664062 215.351562 278.34375 215.410156 284.164062 215.710938 C 290.304688 216.011719 298.546875 213.378906 306.660156 232.875 C 309.773438 240.34375 314.511719 251.886719 319.355469 263.679688 L 320.394531 266.210938 C 328.195312 285.1875 335.996094 304.105469 337.496094 307.113281 C 339.992188 312.113281 341.65625 317.960938 338.324219 324.625 C 334.996094 331.304688 333.324219 335.472656 328.328125 341.316406 C 323.328125 347.148438 317.828125 354.355469 313.332031 358.832031 C 313.085938 359.074219 312.839844 359.320312 312.597656 359.566406 L 311.871094 360.308594 C 307.410156 364.921875 303.679688 370.207031 308.945312 379.230469 C 314.777344 389.246094 334.84375 421.996094 364.570312 448.507812 C 402.761719 482.570312 434.980469 493.132812 444.980469 498.140625 C 454.976562 503.144531 460.8125 502.308594 466.644531 495.628906 C 472.480469 488.960938 491.636719 466.4375 498.304688 456.425781 C 504.96875 446.414062 511.636719 448.089844 520.804688 451.425781 C 525.160156 453.011719 538.554688 459.308594 552.484375 466.019531 L 556.816406 468.109375 C 570.769531 474.859375 584.371094 481.574219 589.125 483.953125 C 599.125 488.960938 605.792969 491.460938 608.289062 495.628906 C 610.789062 499.804688 610.789062 519.820312 602.457031 543.179688 C 594.125 566.535156 554.179688 587.855469 534.964844 590.726562 C 517.738281 593.296875 495.941406 594.371094 471.988281 586.765625 C 457.46875 582.152344 438.839844 576.003906 414.984375 565.699219 C 314.679688 522.394531 249.167969 421.390625 244.171875 414.722656 L 243.832031 414.269531 C 237.738281 406.121094 203.34375 359.5 203.34375 311.277344 C 203.34375 262.066406 229.175781 237.875 238.335938 227.863281 C 247.503906 217.863281 258.335938 215.351562 265.003906 215.351562 Z M 265.003906 215.351562 " fill-opacity="1" fill-rule="nonzero"/></g></svg>